<svg xmlns="http://www.w3.org/2000/svg" width="120.002" height="45.963" viewBox="0 0 120.002 45.963">
            <path id="Union_5" data-name="Union 5" d="M20497.76,1610.962v-.341h2.818v-29h-3.252v-.372h8.7v29.37h3.432v.341Zm90.348-.651a9.788,9.788,0,0,0,1.7-.677,4.773,4.773,0,0,0,2.229-5.975,2.122,2.122,0,0,0-1.174-1.3,6.556,6.556,0,0,0-2.414-.558,28.156,28.156,0,0,0-4.275.124,14,14,0,0,1-4.549-.217,4.853,4.853,0,0,1-2.631-1.52,4.721,4.721,0,0,1-1.146-2.662,5.111,5.111,0,0,1,1.488-4.425c.063-.062.125-.124.186-.186l.279.248a2.613,2.613,0,0,0-.4,1.613,1.955,1.955,0,0,0,1.178,1.856,4.068,4.068,0,0,0,1.576.4c1.484,0,3-.062,4.488-.124a35.946,35.946,0,0,1,5.168-.031,6.791,6.791,0,0,1,2.352.708,5.159,5.159,0,0,1,2.662,4,8,8,0,0,1-5.6,8.849c-.4.124-.895.248-1.359.372C20587.736,1610.5,20587.859,1610.4,20588.107,1610.311Zm-5.51.372a11.337,11.337,0,0,1-4.025-1.018,8.193,8.193,0,0,1-1.639-1.054,2.715,2.715,0,0,1-.715-3.313,2.954,2.954,0,0,1,1.3-1.3,6.6,6.6,0,0,1,2.631-.682.543.543,0,0,1,.244.062,5.317,5.317,0,0,0-.492,3.809,3.78,3.78,0,0,0,2.879,3c.461.119.957.181,1.484.274v.341C20583.709,1610.776,20583.156,1610.745,20582.6,1610.683Zm-100.437-9.966c-.93-.341-1.855-.744-2.785-1.111a3.58,3.58,0,0,0-1.613-.217,1.723,1.723,0,0,0-1.391.863.79.79,0,0,1-.311.217H20476v-10.028h.279c.217.9.434,1.8.682,2.662a13.951,13.951,0,0,0,2.537,5.014,7.456,7.456,0,0,0,3.309,2.445,9.381,9.381,0,0,0,.992.248v.372A14.221,14.221,0,0,1,20482.16,1600.718Zm4.859.4v-.341c.279-.062.559-.093.832-.155a4.864,4.864,0,0,0,3.344-2.2,5.761,5.761,0,0,0,.715-3.437,5.437,5.437,0,0,0-2.445-4.115,18.512,18.512,0,0,0-3.531-1.918c-1.359-.62-2.725-1.21-4.053-1.887a11.18,11.18,0,0,1-3.281-2.481,7.863,7.863,0,0,1-1.949-6.032,8.3,8.3,0,0,1,1.824-4.828,8.677,8.677,0,0,1,5.418-3.065c.123.279,0,.372-.248.434a4.585,4.585,0,0,0-2.631,7.49,7.963,7.963,0,0,0,2.568,2.073c1.4.682,2.816,1.3,4.213,1.949,1.3.62,2.6,1.21,3.836,1.887a8.5,8.5,0,0,1,3.25,3.189,8.229,8.229,0,0,1,.988,4.523,9.082,9.082,0,0,1-6.746,8.508c-.65.186-1.3.279-1.949.4Zm22.377-.341c-.342-.155-.342-.155-.311-.527a4.59,4.59,0,0,0,2.506-.062,2.408,2.408,0,0,0,1.18-.894,5.643,5.643,0,0,0,.986-2.724c.16-1.365.311-2.724.342-4.089a48.593,48.593,0,0,0-.125-6.032,11.624,11.624,0,0,0-.521-2.786,3,3,0,0,0-3.592-2.29c-.248.031-.5.093-.775.124-.094-.248,0-.372.248-.465a5.2,5.2,0,0,1,2.568-.279,8.5,8.5,0,0,1,7.092,5.138,11.141,11.141,0,0,1,1.018,5.479,11.894,11.894,0,0,1-1.451,5.107,8.464,8.464,0,0,1-5.6,4.332,6.7,6.7,0,0,1-1.7.218A7.124,7.124,0,0,1,20509.4,1600.78Zm54.289-.372v-.341h2.537v-15.135a8.58,8.58,0,0,0-.154-1.546,2.181,2.181,0,0,0-2.57-1.918,8.958,8.958,0,0,0-1.234.155c-.094-.248.031-.341.248-.465a5.83,5.83,0,0,1,2.816-.4,6.773,6.773,0,0,1,3.34.992,5.764,5.764,0,0,1,2.754,4.208,11.655,11.655,0,0,1,.156,1.825v12.255h2.725v.372Zm-24.729,0v-.372h2.719v-18.443h-3.246v-.341h8.693v18.784h2.85v.372Zm12.1-.031v-.341h2.725v-18.443h-3.252v-.372h8.7v18.815h2.756v.341Zm8.172-.341h-.029Zm-38.162.341v-.341h2.787v-18.443h-3.283v-.341h8.664l.031,18.784h3v.341Zm64.441-6.4a.364.364,0,0,1,.182-.465,2.74,2.74,0,0,0,.961-1.577,12.642,12.642,0,0,0,.4-3.251c0-1.52-.029-3.034-.092-4.58a5,5,0,0,0-.559-2.321,1.562,1.562,0,0,0-.713-.713c-.088-.093-.088-.279-.182-.434a7.6,7.6,0,0,1,3.4,1.328,6.609,6.609,0,0,1,2.848,4.058,5.911,5.911,0,0,1-1.391,5.293,7.8,7.8,0,0,1-4.611,2.631.372.372,0,0,0-.186.031Zm-4.088-.589a7.223,7.223,0,0,1-3.867-3.711,5.781,5.781,0,0,1,.59-5.82,7.553,7.553,0,0,1,5.262-3.22.366.366,0,0,1-.154.5h-.031a2.463,2.463,0,0,0-.932,1.421,11.847,11.847,0,0,0-.4,2.972,34.279,34.279,0,0,0,.123,5.045,5.935,5.935,0,0,0,.621,2.2,8.053,8.053,0,0,0,.678.775.912.912,0,0,1,.217.434A7.387,7.387,0,0,1,20581.42,1593.383Zm-49.426-10.121v-.031a2.662,2.662,0,0,1,2.662-2.662,2.741,2.741,0,0,1,2.75,2.662,2.706,2.706,0,1,1-5.412.031Zm61.867,1.359a2.089,2.089,0,0,1,.1-4.177,2.066,2.066,0,0,1,2.043,2.135,2.1,2.1,0,0,1-2.084,2.042Zm-101.115-5.722c-.154-.62-.311-1.21-.5-1.8a12.332,12.332,0,0,0-1.762-3.68,5.694,5.694,0,0,0-3.221-2.383c-.094-.031-.125-.186-.186-.31l.092-.093c.373.093.74.155,1.117.279.678.248,1.359.558,2.041.739a5.626,5.626,0,0,0,1.453.155.992.992,0,0,0,.93-.646c.031-.093.188-.124.342-.217v7.955Zm48.688-11.02a2.863,2.863,0,1,1,2.879,2.848A2.866,2.866,0,0,1,20541.434,1567.879Z" transform="translate(-20476 -1565)"></path>
          </svg>
